<svg xmlns="http://www.w3.org/2000/svg" viewBox="0 0 256 256">
  <defs>
    <linearGradient id="g" x1="0" x2="1" y1="0" y2="1">
      <stop offset="0%" stop-color="#4cc9f0"/>
      <stop offset="100%" stop-color="#7c3aed"/>
    </linearGradient>
  </defs>
  <rect width="256" height="256" rx="52" fill="#07111f"/>
  <rect x="28" y="28" width="200" height="200" rx="40" fill="url(#g)" opacity=".18"/>
  <path d="M84 157c16 0 30-14 30-31 0-13-8-24-20-29l12-24h40l-15 29c24 4 41 24 41 49 0 28-23 51-51 51-18 0-35-10-44-25l23-13c4 7 12 12 21 12 14 0 25-11 25-25s-11-25-25-25H84v31Z" fill="url(#g)"/>
</svg>